<!DOCTYPE svg PUBLIC "-//W3C//DTD SVG 20010904//EN" "http://www.w3.org/TR/2001/REC-SVG-20010904/DTD/svg10.dtd">
<svg version="1.0" xmlns="http://www.w3.org/2000/svg" width="180px" height="180px" viewBox="0 0 1800 1800" preserveAspectRatio="xMidYMid meet">
<g id="layer1" fill="#ffffff" stroke="none">
 <path d="M931 1758 c1 -57 22 -134 34 -128 13 7 22 -40 24 -117 1 -69 7 -74 52 -43 39 29 134 52 176 44 22 -4 57 -26 96 -61 33 -29 62 -51 65 -48 3 3 12 -1 20 -8 13 -11 14 -9 2 10 -8 12 -18 19 -24 16 -5 -3 -6 -1 -2 5 4 7 -14 49 -40 95 -26 45 -72 126 -102 180 -54 97 -55 97 -93 97 -45 0 -46 -5 -23 -79 17 -50 17 -51 -9 -109 -15 -32 -29 -70 -31 -83 -3 -13 -5 -25 -5 -27 -1 -2 -14 6 -30 17 -25 18 -56 90 -49 118 3 14 -15 67 -28 88 -8 11 -14 32 -14 47 0 16 -4 28 -10 28 -5 0 -10 -19 -9 -42z"/>
 <path d="M982 1795 c4 -4 1 -13 -7 -19 -12 -9 -11 -15 12 -36 24 -23 25 -23 15 -3 -7 12 -17 24 -24 26 -8 3 -6 6 5 6 20 1 23 17 5 27 -7 4 -10 4 -6 -1z"/>
 <path d="M1077 1725 c3 -22 9 -47 14 -55 15 -27 9 32 -6 65 l-14 30 6 -40z"/>
 <path d="M824 1358 c-16 -12 -32 -27 -36 -33 -4 -5 -8 -6 -8 -1 0 5 -11 -1 -25 -14 -39 -36 -110 -177 -134 -263 -22 -80 -28 -197 -11 -197 6 0 10 -9 10 -20 0 -13 5 -18 15 -14 17 7 47 -14 39 -27 -3 -5 9 -6 26 -3 28 6 30 4 30 -22 0 -18 -8 -34 -20 -42 -11 -7 -20 -20 -20 -30 0 -11 -3 -13 -8 -6 -4 7 -33 15 -64 19 l-58 7 -2 -41 c-1 -22 -2 -51 -2 -63 -1 -13 -5 -26 -9 -29 -9 -7 12 -99 26 -114 7 -6 7 -3 3 10 -7 19 -6 19 16 -1 27 -25 75 -39 80 -23 5 14 69 -12 114 -46 18 -14 36 -25 40 -25 4 0 -1 7 -12 15 -17 13 -14 14 39 10 44 -4 58 -2 56 7 -3 28 2 38 19 39 13 0 12 2 -5 9 -13 5 -23 14 -23 19 0 5 -8 12 -17 14 -13 3 -12 5 5 6 l23 1 -20 26 c-30 38 -26 50 5 17 18 -18 28 -24 31 -15 3 6 12 12 21 13 14 0 13 2 -2 8 -18 7 -18 8 5 25 l24 18 -27 -5 c-21 -3 -29 1 -33 14 -4 11 -13 19 -21 19 -23 0 -28 1 -49 13 -11 6 -23 10 -27 9 -4 -1 -15 12 -23 28 -9 18 -23 30 -35 30 -11 0 -20 5 -20 10 0 10 14 14 37 11 9 -1 10 5 4 21 -4 13 -7 31 -6 41 2 9 0 17 -4 17 -4 0 -8 29 -9 64 -2 71 -14 110 -42 141 -20 23 -31 52 -34 99 -2 25 1 32 16 33 13 1 18 -5 18 -21 0 -42 12 -86 24 -86 21 1 58 40 52 55 -3 8 -1 15 4 15 6 0 10 -9 10 -20 0 -28 17 -25 24 5 4 14 12 25 19 25 6 0 -1 7 -17 15 -16 8 -34 15 -40 14 -25 -3 -36 2 -36 17 0 8 -4 12 -10 9 -12 -7 -12 2 0 30 7 18 8 19 15 3 5 -12 18 -18 39 -18 18 0 55 -7 81 -15 55 -16 63 -14 40 9 -16 16 -72 34 -116 38 -16 1 -25 8 -25 19 0 10 3 16 6 14 3 -2 12 0 20 6 13 7 12 9 -2 9 -11 0 -15 5 -12 14 4 12 10 12 35 -1 41 -21 109 -29 109 -14 0 7 5 9 10 6 6 -3 10 -2 10 3 0 5 10 8 21 8 12 -1 24 6 26 14 4 13 3 13 -6 0 -9 -13 -11 -12 -11 3 0 14 -4 16 -16 9 -19 -10 -54 13 -54 35 0 7 -7 10 -15 7 -8 -4 -27 -3 -41 0 -21 6 -24 9 -14 21 18 21 7 18 -26 -7z m-44 -59 c0 -12 -4 -17 -11 -13 -6 3 -10 -1 -9 -12 4 -31 1 -44 -10 -44 -15 0 -12 38 6 65 20 30 24 31 24 4z"/>
 <path d="M1055 1222 c-5 -4 -12 -34 -14 -67 -2 -33 -7 -68 -12 -77 -9 -16 -7 -17 14 -7 19 9 23 18 25 67 1 31 5 64 8 74 6 19 -4 23 -21 10z"/>
 <path d="M918 1039 c18 -19 15 -57 -7 -85 -13 -17 -19 -41 -20 -79 0 -56 -7 -79 -19 -71 -4 2 -8 -9 -9 -24 -2 -22 3 -31 20 -36 12 -4 25 -11 29 -17 4 -6 12 -4 23 7 11 11 25 14 39 10 11 -4 18 -3 14 1 -4 4 -22 11 -40 15 -32 8 -32 8 -5 9 16 1 38 -4 50 -11 20 -10 21 -10 8 6 -12 15 -12 16 5 9 18 -7 18 -6 3 17 -9 14 -31 30 -49 36 -19 6 -27 13 -19 16 27 10 77 -13 108 -48 27 -30 34 -34 47 -23 13 11 9 18 -26 54 -37 38 -53 64 -30 50 5 -3 0 16 -12 42 -14 32 -17 48 -9 51 6 2 2 11 -10 21 -20 16 -21 18 -4 35 10 9 14 20 10 24 -4 4 -17 -5 -30 -20 -26 -31 -35 -34 -35 -15 0 7 -10 18 -22 26 -18 10 -20 11 -10 0z"/>
 <path d="M570 799 c0 -8 -3 -24 -6 -36 -6 -22 -4 -23 69 -23 87 0 111 15 36 22 -33 4 -58 13 -74 28 -18 17 -25 19 -25 9z"/>
 <path d="M875 691 c21 -22 79 -44 89 -33 3 3 6 13 6 22 0 11 -10 17 -37 18 -21 2 -47 5 -58 8 -20 6 -20 6 0 -15z"/>
 </g>
<g id="layer2" fill="#000000" stroke="none">
 <path d="M0 900 l0 -900 900 0 900 0 0 900 0 900 -310 0 -310 0 26 -52 c15 -29 46 -84 69 -123 83 -138 106 -185 99 -196 -4 -7 -3 -9 2 -6 6 3 16 -4 24 -16 12 -19 11 -21 -2 -10 -8 7 -17 11 -20 8 -3 -3 -32 19 -65 48 -39 35 -74 57 -96 61 -42 8 -137 -15 -176 -44 -45 -31 -51 -26 -52 43 -2 76 -11 122 -24 118 -13 -3 -33 72 -34 127 l-1 42 -465 0 -465 0 0 -900z m850 465 c-10 -12 -7 -15 14 -21 14 -3 33 -4 41 0 8 3 15 0 15 -7 0 -22 35 -45 54 -35 12 7 16 5 16 -9 0 -15 2 -16 11 -3 9 13 10 13 6 0 -2 -8 -14 -15 -26 -14 -11 0 -21 -3 -21 -8 0 -5 -4 -6 -10 -3 -5 3 -10 1 -10 -6 0 -15 -68 -7 -109 14 -25 13 -31 13 -35 1 -3 -9 1 -14 12 -14 14 0 15 -2 2 -9 -8 -6 -17 -8 -20 -6 -3 2 -6 -4 -6 -14 0 -11 9 -18 25 -19 44 -4 100 -22 116 -38 23 -23 15 -25 -40 -9 -26 8 -63 15 -81 15 -21 0 -34 6 -39 18 -7 16 -8 15 -15 -3 -12 -28 -12 -37 0 -30 6 3 10 -1 10 -9 0 -15 11 -20 36 -17 6 1 24 -6 40 -14 16 -8 23 -15 17 -15 -7 0 -15 -11 -19 -25 -7 -30 -24 -33 -24 -5 0 11 -4 20 -10 20 -5 0 -7 -7 -4 -15 6 -15 -31 -54 -52 -55 -12 0 -24 44 -24 86 0 16 -5 22 -18 21 -15 -1 -18 -8 -16 -33 3 -47 14 -76 34 -99 28 -31 40 -70 42 -141 1 -35 5 -64 9 -64 4 0 6 -8 4 -17 -1 -10 2 -28 6 -41 6 -16 5 -22 -4 -21 -23 3 -37 -1 -37 -11 0 -5 9 -10 20 -10 12 0 26 -12 35 -30 8 -16 19 -29 23 -28 4 1 16 -3 27 -9 21 -12 26 -13 49 -13 8 0 17 -8 21 -19 4 -13 12 -17 33 -14 l27 5 -24 -18 c-23 -17 -23 -18 -5 -25 15 -6 16 -8 2 -8 -9 -1 -18 -7 -21 -13 -3 -9 -13 -3 -31 15 -31 33 -35 21 -5 -17 l20 -26 -23 -1 c-17 -1 -18 -3 -5 -6 9 -2 17 -9 17 -14 0 -5 10 -14 23 -19 17 -7 18 -9 5 -9 -17 -1 -22 -11 -19 -39 2 -9 -12 -11 -56 -7 -53 4 -56 3 -39 -10 11 -8 16 -15 12 -15 -4 0 -22 11 -40 25 -45 34 -109 60 -114 46 -5 -16 -53 -2 -80 23 -22 20 -23 20 -16 1 4 -13 4 -16 -3 -10 -14 15 -35 107 -26 114 4 3 8 16 9 29 0 12 1 41 2 63 l2 41 58 -7 c31 -4 60 -12 64 -19 5 -7 8 -5 8 6 0 10 9 23 20 30 12 8 20 24 20 42 0 26 -2 28 -30 22 -17 -3 -29 -2 -26 3 8 13 -22 34 -39 27 -10 -4 -15 1 -15 14 0 11 -4 20 -10 20 -17 0 -11 117 11 197 24 86 95 227 134 263 14 13 25 19 25 14 0 -5 4 -4 8 1 8 13 63 55 70 55 2 0 -1 -7 -8 -15z m226 -153 c-3 -10 -7 -43 -8 -74 -2 -49 -6 -58 -25 -67 -21 -10 -23 -9 -14 7 5 9 10 44 12 77 4 56 12 74 32 75 5 0 6 -8 3 -18z m-126 -199 c0 -19 9 -16 35 15 13 15 26 24 30 20 4 -4 0 -15 -10 -24 -17 -17 -16 -19 4 -35 12 -10 16 -19 10 -21 -8 -3 -5 -19 9 -51 12 -26 17 -45 12 -42 -23 14 -7 -12 30 -50 35 -36 39 -43 26 -54 -13 -11 -20 -7 -47 23 -31 35 -81 58 -108 48 -8 -3 0 -10 19 -16 18 -6 40 -22 49 -36 15 -23 15 -24 -3 -17 -17 7 -17 6 -5 -9 13 -16 12 -16 -8 -6 -12 7 -34 12 -50 11 -27 -1 -27 -1 5 -9 18 -4 36 -11 40 -15 4 -4 -3 -5 -14 -1 -14 4 -28 1 -39 -10 -11 -11 -19 -13 -23 -7 -4 6 -17 13 -29 17 -17 5 -22 14 -20 36 1 15 5 26 9 24 12 -8 19 15 19 71 1 38 7 62 20 79 22 28 25 66 7 85 -10 11 -8 10 10 0 12 -8 22 -19 22 -26z m-281 -251 c75 -7 51 -22 -36 -22 -73 0 -75 1 -69 23 3 12 6 28 6 36 0 10 7 8 25 -9 16 -15 41 -24 74 -28z m264 -64 c27 -1 37 -7 37 -18 0 -9 -3 -19 -6 -22 -10 -11 -68 11 -89 33 -20 21 -20 21 0 15 11 -3 37 -6 58 -8z"/>
 <path d="M756 1295 c-18 -27 -21 -65 -6 -65 11 0 14 13 10 44 -1 11 3 15 9 12 7 -4 11 1 11 13 0 27 -4 26 -24 -4z"/>
 <path d="M950 1770 c0 -14 6 -34 14 -45 13 -21 31 -74 28 -88 -7 -28 24 -100 49 -118 16 -11 29 -19 30 -17 0 2 2 14 5 27 2 13 16 51 31 83 26 58 26 59 9 109 -9 28 -16 58 -16 66 0 11 -15 14 -75 11 -73 -2 -75 -3 -75 -28z m50 10 c0 -5 -8 -10 -17 -11 -11 0 -13 -3 -5 -6 7 -2 17 -14 24 -26 10 -20 9 -20 -15 3 -24 23 -25 26 -10 38 20 15 23 15 23 2z m99 -100 c0 -36 -15 -6 -22 45 l-6 40 14 -30 c8 -16 14 -41 14 -55z"/>
 </g>

</svg>
